<svg xmlns="http://www.w3.org/2000/svg" viewBox="0 0 128 128" role="img" aria-labelledby="title desc">
  <title id="title">Favicon Bintou Karamoko</title>
  <desc id="desc">Icône bleu nuit avec les initiales BK</desc>
  <defs>
    <linearGradient id="bg" x1="0" y1="0" x2="1" y2="1">
      <stop offset="0%" stop-color="#002b5c" />
      <stop offset="100%" stop-color="#0077ff" />
    </linearGradient>
  </defs>
  <rect width="128" height="128" rx="28" fill="url(#bg)" />
  <circle cx="96" cy="32" r="10" fill="#00c8e0" opacity="0.95" />
  <path d="M24 96V32h24c16 0 26 8 26 21 0 8-4 14-11 17 10 3 15 10 15 20 0 16-12 26-31 26H24Zm18-39h14c7 0 11-4 11-10s-4-10-11-10H42v20Zm0 29h16c8 0 13-4 13-11 0-8-5-12-14-12H42v23Z" fill="#ffffff" />
</svg>
